<svg xmlns="http://www.w3.org/2000/svg" viewBox="0 0 64 64" width="64" height="64">
  <defs>
    <style>
      .outline { fill: #000000; stroke: #000000; stroke-width: 1; }
      .white-bg { fill: #FFFFFF; }
      .red-section { fill: #E53935; }
      .blue-section { fill: #1E3D8F; }
      .text { fill: #FFFFFF; font-family: Arial, sans-serif; font-weight: bold; font-size: 10px; }
    </style>
  </defs>
  
  <!-- Outer black border (speech bubble shape) -->
  <path class="outline" d="M8 12 C8 8 12 4 18 4 L46 4 C52 4 56 8 56 12 L56 36 C56 42 52 46 46 46 L32 46 L24 54 L18 46 C12 46 8 42 8 36 Z"/>
  
  <!-- White background -->
  <path class="white-bg" d="M10 14 C10 11 13 8 17 8 L47 8 C51 8 54 11 54 14 L54 34 C54 38 51 41 47 41 L31 41 L25 48 L19 41 C15 41 12 38 12 34 Z"/>
  
  <!-- Red section (left half) -->
  <path class="red-section" d="M12 14 C12 11 15 8 19 8 L32 8 L32 41 L19 41 C15 41 12 38 12 34 Z"/>
  
  <!-- Blue section (right half) -->
  <path class="blue-section" d="M32 8 L47 8 C51 8 54 11 54 14 L54 34 C54 38 51 41 47 41 L32 41 Z"/>
  
  <!-- ENNC text -->
  <text class="text" x="32" y="28" text-anchor="middle" dominant-baseline="middle">ENNC</text>
</svg>